<svg viewBox="0 0 260 260" width="48" height="48" xmlns="http://www.w3.org/2000/svg"><path fill="#c02d28" d="M92.5 40.1c-35.1 8.1-64.2 33.8-75.3 66.7-2.4 7-2.7 9.2-2.7 23.2 0 14.9.1 15.7 2.8 21.5 2.9 6.3 8.1 12.5 13.1 15.5 2.8 1.8 2.9 1.9 2.7 10.7-.2 8.2.1 9.3 3.3 16 4.5 9.2 10.2 15.5 17.9 19.3 5.7 2.8 6.7 3 17.6 3 10.3 0 12.2-.3 17-2.5 7.8-3.7 14.2-8.7 20.8-16.3l5.8-6.8 3.4 2.3c1.8 1.2 5.8 3.2 8.9 4.4 4.8 1.8 7.1 2 14.7 1.6 5.6-.3 11.1-1.3 14.7-2.7l5.7-2.1 4.5 3.5c7.9 6 14.4 7.8 27.1 7.4 9.5-.3 11.8-.7 17.1-3.1 7.4-3.4 13.5-9.4 16.5-16.1 2-4.6 2.1-6 1.5-16.6-.5-8.6-.3-14.3.8-21.3 2-12.4 8.6-37.8 12.5-48.5 4-10.8 4.2-20.2.7-27.7-3-6.3-5.5-8.6-13.6-12.4-15.2-7.1-24.4-7.5-39.1-2-8.4 3.2-14 7.5-18 13.9l-1.6 2.5-2.6-5c-3.5-6.8-15.8-18.6-23.2-22.3-11.9-5.9-18.2-7.2-34.4-7.1-8 .1-16.4.5-18.6 1zM129.4 67c7.1 2.7 14.8 9.6 18.1 16 5 9.9 5.7 14.3 6.2 36.8.4 15.3.8 21.2 1.7 20.9.6-.2 7.2-9.1 14.6-19.8s14.3-20.6 15.3-21.9l1.7-2.4v3.4c0 1.9.6 6.1 1.4 9.2.7 3.2 1 5.8.6 5.8-.7 0-21.7 31.2-33.9 50.2-4 6.4-7.1 8-15.4 8.1-4.3.1-5.3-.3-7.4-2.7-1.8-2.1-2.2-3.6-1.8-5.9.8-5 2.5-33 2.5-41.3 0-4.3-.4-7.4-1-7.4s-1-3.3-1-7.8c0-19.7-10.3-29.6-28.8-27.9-20.3 1.9-38 22.3-40.7 47-.7 5.8.8 12.7 2.6 12.7 2 0-1.1 3.8-4.5 5.4-4.3 2-10.8 2.1-14.6.1-4.3-2.2-6-6.3-6-14.1 0-24.3 18.7-50.1 44.6-61.6 14.3-6.3 33.8-7.5 45.8-2.8zm86 13.6c2.6.9 5 2.2 5.2 2.8.3.7-.9 5-2.6 9.6-4.5 12.2-11.6 40.7-13.5 54.6-1.5 10.5-1.6 17-.3 26.4.4 3.4-4.8 6-11.9 6-4.5 0-5.6-.4-8.9-3.5l-3.7-3.5.6-10.3c.7-11.5 5.7-34.1 11.2-50.1 1.9-5.5 4.8-14.8 6.5-20.6 1.8-5.8 3.9-11.1 4.8-11.8 2.2-1.7 6.9-1.5 12.6.4zm-92.1 39.6 2.8 2.6-2.2 4.4c-8.7 17.1-26.7 45.2-34.9 54-6.7 7.4-10.9 9.8-17 9.8-5.6 0-9.1-2-11.8-6.8-3.1-5.6-2.9-6.8 1.7-7.6 8.7-1.4 19-13.1 38.1-43.5 5.7-9 11.4-17.6 12.7-19.2l2.5-2.9 2.6 3.3c1.4 1.7 3.9 4.4 5.5 5.9z"/></svg>